<?xml version="1.0" encoding="iso-8859-1"?>
<!-- Generator: Adobe Illustrator 16.0.0, SVG Export Plug-In . SVG Version: 6.00 Build 0)  -->
<!DOCTYPE svg PUBLIC "-//W3C//DTD SVG 1.1//EN" "http://www.w3.org/Graphics/SVG/1.1/DTD/svg11.dtd">
<svg version="1.1" id="Capa_1" xmlns="http://www.w3.org/2000/svg" xmlns:xlink="http://www.w3.org/1999/xlink" x="0px" y="0px"
	 width="234.287px" height="234.288px" viewBox="0 0 234.287 234.288" style="enable-background:new 0 0 234.287 234.288;"
	 xml:space="preserve">
<g>
	<g id="_x37_0_42_">
		<g>
			<polygon points="104.134,112.855 104.134,102.873 66.509,102.873 66.509,114.288 86.043,114.288 65.323,136.689 65.323,147.423 
				105.132,147.423 105.132,135.999 83.235,135.999 			"/>
			<rect x="110.118" y="102.873" width="13.731" height="44.551"/>
			<path d="M153.865,102.873h-22.963v44.551h13.736v-13.477h8.109c2.534,0,4.88-0.325,7.022-0.975c2.138-0.64,3.991-1.62,5.551-2.93
				c1.554-1.311,2.768-2.951,3.62-4.932c0.854-1.975,1.279-4.316,1.279-7.022c0-1.587-0.284-3.26-0.843-5.061
				c-0.563-1.787-1.492-3.433-2.782-4.923c-1.285-1.493-2.971-2.742-5.048-3.75C159.461,103.373,156.901,102.873,153.865,102.873z
				 M156.582,121.242c-0.437,0.65-1.001,1.127-1.687,1.442c-0.69,0.305-1.467,0.497-2.341,0.559
				c-0.873,0.056-1.746,0.091-2.62,0.091h-5.307v-9.046h6.114c0.833,0,1.646,0.03,2.438,0.104c0.792,0.061,1.482,0.234,2.092,0.531
				c0.6,0.284,1.077,0.721,1.432,1.31c0.346,0.577,0.528,1.371,0.528,2.366C157.231,119.718,157.019,120.602,156.582,121.242z"/>
			<path d="M173.837,0H26.931v234.288h180.426V32.504L173.837,0z M191.762,218.683H42.53V15.6h123.269v24.75h25.958v178.333H191.762
				z"/>
		</g>
	</g>
</g>
<g>
</g>
<g>
</g>
<g>
</g>
<g>
</g>
<g>
</g>
<g>
</g>
<g>
</g>
<g>
</g>
<g>
</g>
<g>
</g>
<g>
</g>
<g>
</g>
<g>
</g>
<g>
</g>
<g>
</g>
</svg>
